<svg xmlns="http://www.w3.org/2000/svg" fill-rule="evenodd" stroke-linejoin="round" stroke-miterlimit="2" clip-rule="evenodd" viewBox="0 0 48 48"><path d="M10.904,38c-2.762,-2.483 -4.58,-5.956 -5.71,-9.797c-0.685,-2.33 -1.189,-7.099 -1.189,-7.099c-0.029,-0.282 0.062,-0.563 0.252,-0.773c0.19,-0.211 0.46,-0.331 0.743,-0.331l34,0c0.28,0 0.547,0.117 0.736,0.323c0.19,0.206 0.284,0.482 0.26,0.761c0,0 -0.112,1.321 -0.3,2.916l4.304,0c0.552,-0 1,0.448 1,1c-0,0 -0,0.673 -0,1.652c0,2.214 -0.88,4.337 -2.445,5.903c-1.566,1.565 -3.689,2.445 -5.903,2.445l-0.21,0c-0.67,1.11 -1.459,2.117 -2.396,3l5.954,0c0.552,0 1,0.448 1,1l-0,0c-0,2.761 -2.239,5 -5,5c-6.926,0 -21.074,0 -28,-0c-2.761,-0 -5,-2.239 -5,-5c0,0 0,0 0,0c0,-0.552 0.448,-1 1,-1l6.904,0Zm27.925,2l-33.658,0c0.411,1.165 1.523,2 2.829,2c6.926,0 21.074,0 28,0c1.306,-0 2.418,-0.835 2.829,-2Zm-8.096,-2c3.629,-2.139 5.329,-5.881 6.355,-10.24c0.369,-1.569 0.667,-4.263 0.815,-5.76l-31.782,0c0.181,1.484 0.543,4.113 0.992,5.639c1.274,4.334 3.465,8.188 7.154,10.361l16.466,0Zm8.702,-12c-0.12,0.819 -0.255,1.602 -0.4,2.218c-0.395,1.676 -0.889,3.264 -1.532,4.725c1.369,-0.185 2.65,-0.814 3.638,-1.802c1.19,-1.191 1.859,-2.806 1.859,-4.489l-0,-0.652l-3.565,0Zm-18.988,-9.894c0,-0 -1.447,-0.808 -1.447,-3.106c-0,-2.298 1.447,-3.106 1.447,-3.106c0.494,-0.246 0.694,-0.848 0.447,-1.341c-0.246,-0.494 -0.848,-0.694 -1.341,-0.447c-0,-0 -2.553,1.191 -2.553,4.894c-0,3.703 2.553,4.894 2.553,4.894c0.493,0.247 1.095,0.047 1.341,-0.447c0.247,-0.493 0.047,-1.095 -0.447,-1.341Zm4,-2.212c0,0 2.553,-1.191 2.553,-4.894c-0,-3.703 -2.553,-4.894 -2.553,-4.894c-0.493,-0.247 -1.095,-0.047 -1.341,0.447c-0.247,0.493 -0.047,1.095 0.447,1.341c-0,0 1.447,0.808 1.447,3.106c0,2.298 -1.447,3.106 -1.447,3.106c-0.494,0.246 -0.694,0.848 -0.447,1.341c0.246,0.494 0.848,0.694 1.341,0.447Z"/></svg>